<!-- <svg width="24" height="22" viewBox="0 0 24 22" fill="none" xmlns="http://www.w3.org/2000/svg">
<g clip-path="url(#clip0)">
<path d="M22.675 0H1.325C0.593 0 0 0.543583 0 1.21458V20.7863C0 21.4564 0.593 22 1.325 22H12.82V13.4805H9.692V10.1603H12.82V7.71192C12.82 4.87025 14.713 3.32292 17.479 3.32292C18.804 3.32292 19.942 3.41367 20.274 3.454V6.424L18.356 6.42492C16.852 6.42492 16.561 7.08033 16.561 8.041V10.1613H20.148L19.681 13.4814H16.561V22H22.677C23.407 22 24 21.4564 24 20.7854V1.21458C24 0.543583 23.407 0 22.675 0V0Z" fill="white"/>
</g>
<defs>
<clipPath id="clip0">
<rect width="24" height="22" fill="white"/>
</clipPath>
</defs>
</svg> -->

<svg class="instagram-logo" id="Layer_1" xmlns="http://www.w3.org/2000/svg" width="30" height="25"
	 viewBox="0 0 551.034 551.034" style="enable-background:new 0 0 551.034 551.034;" xml:space="preserve">
		<path class="logo" id="XMLID_17_" d="M386.878,0H164.156C73.64,0,0,73.64,0,164.156v222.722 c0,90.516,73.64,164.156,164.156,164.156h222.722c90.516,0,164.156-73.64,164.156-164.156V164.156 C551.033,73.64,477.393,0,386.878,0z M495.6,386.878c0,60.045-48.677,108.722-108.722,108.722H164.156 c-60.045,0-108.722-48.677-108.722-108.722V164.156c0-60.046,48.677-108.722,108.722-108.722h222.722 c60.045,0,108.722,48.676,108.722,108.722L495.6,386.878L495.6,386.878z"/>
	
		<path id="XMLID_81_" fill="white" d="M275.517,133C196.933,133,133,196.933,133,275.516 s63.933,142.517,142.517,142.517S418.034,354.1,418.034,275.516S354.101,133,275.517,133z M275.517,362.6 c-48.095,0-87.083-38.988-87.083-87.083s38.989-87.083,87.083-87.083c48.095,0,87.083,38.988,87.083,87.083 C362.6,323.611,323.611,362.6,275.517,362.6z"/>
	
		<circle id="XMLID_83_" fill="blue" cx="418.306" cy="134.072" r="34.149"/>

</svg>